<?xml version="1.0" standalone="no"?>
<!DOCTYPE svg PUBLIC "-//W3C//DTD SVG 20010904//EN"
 "http://www.w3.org/TR/2001/REC-SVG-20010904/DTD/svg10.dtd">
<svg version="1.0" xmlns="http://www.w3.org/2000/svg"
 width="120.000000pt" height="115.000000pt" viewBox="0 0 120.000000 115.000000"
 preserveAspectRatio="xMidYMid meet">
<metadata>
Created by potrace 1.16, written by Peter Selinger 2001-2019
</metadata>
<g transform="translate(0.000000,115.000000) scale(0.100000,-0.100000)"
fill="#000000" stroke="none">
<path d="M329 1123 c-6 -16 -20 -68 -30 -118 -72 -326 -143 -523 -245 -676
l-46 -70 27 -39 c60 -86 197 -165 340 -195 103 -21 291 -22 414 0 171 29 351
98 385 147 23 32 21 178 -4 323 -32 188 -132 583 -162 639 -16 30 -33 4 -93
-144 l-55 -134 -160 3 c-88 1 -172 6 -186 10 -22 5 -31 20 -54 81 -43 120 -88
200 -112 200 -5 0 -13 -12 -19 -27z m154 -493 c82 -71 110 -235 55 -318 -111
-168 -316 -28 -269 183 32 140 134 205 214 135z m466 11 c45 -32 83 -115 89
-191 6 -82 -8 -126 -52 -169 -107 -104 -246 -15 -246 157 0 157 116 269 209
203z"/>
<path d="M403 623 c-10 -36 -10 -310 0 -346 10 -35 25 -35 34 1 10 36 10 287
0 335 -9 44 -24 48 -34 10z"/>
<path d="M871 614 c-6 -22 -11 -97 -11 -169 0 -217 33 -274 53 -90 7 66 7 125
0 187 -12 105 -26 129 -42 72z"/>
</g>
</svg>
